 <svg xmlns="http://www.w3.org/2000/svg"  width="20" height="16" xml:space="preserve" style="enable-background:new 0 0 512 512" viewBox="80 119 352 275"><style>.st1{fill:none;stroke:#000;stroke-width:16;stroke-linecap:round;stroke-linejoin:round;stroke-miterlimit:10}</style><g id="Layer_copy"><path d="M424 394H171a8 8 0 0 1 0-16h253a8 8 0 0 1 0 16zM119 394H88a8 8 0 0 1 0-16h31a8 8 0 0 1 0 16zM424 265H171a8 8 0 0 1 0-16h253a8 8 0 0 1 0 16zM119 265H88a8 8 0 0 1 0-16h31a8 8 0 0 1 0 16zM424 135H171a8 8 0 0 1 0-16h253a8 8 0 0 1 0 16zM119 135H88a8 8 0 0 1 0-16h31a8 8 0 0 1 0 16z"></path></g></svg>